<?xml version="1.0" encoding="utf-8"?>
<!-- Generator: Adobe Illustrator 22.0.0, SVG Export Plug-In . SVG Version: 6.00 Build 0)  -->
<svg version="1.1" id="Lag_1" xmlns="http://www.w3.org/2000/svg" xmlns:xlink="http://www.w3.org/1999/xlink" x="0px" y="0px"
	 viewBox="0 0 203.6 53.5" style="enable-background:new 0 0 203.6 53.5;" xml:space="preserve">
<style type="text/css">
	.st0{clip-path:url(#SVGID_2_);}
	.st1{fill:#FFFFFF;}
</style>
<g>
	<defs>
		<polyline id="SVGID_1_" points="0,53 0,0 203.6,0 203.6,53 		"/>
	</defs>
	<clipPath id="SVGID_2_">
		<use xlink:href="#SVGID_1_"  style="overflow:visible;"/>
	</clipPath>
	<g class="st0">
		<g>
			<path d="M222.5-69.3c-0.2,0-0.4,0-0.6-0.1c-0.1,0-0.3,0-0.4,0c-0.4,0.2-0.8,0.1-1.1,0c-0.1-0.1-0.3-0.1-0.4-0.1
				c-0.4,0-0.8,0.1-1.2,0.1c-0.5,0-1,0-1.5,0c-0.6,0-1.2,0.1-1.8,0.1c-0.8,0-1.5,0-2.3-0.1c-0.1,0-0.2-0.1-0.3,0
				c-1.2,0.3-2.4,0.1-3.6,0c-0.1,0-0.2,0-0.3,0c-0.8,0.3-1.5,0.1-2.3,0.1c-0.6,0-1.3,0.1-1.9,0.1c-0.6,0-1.2,0-1.9,0
				c-1,0-1.9,0-2.9,0c-1.3,0-2.7,0.1-4,0.1c-0.5,0-1,0-1.5,0c-0.3,0-0.5,0-0.8,0c-0.6,0-1.3,0-1.9,0c-0.3,0-0.5,0.1-0.8,0.1
				c-0.7,0-1.4,0-2,0c-1.2,0.1-2.4,0-3.6,0c-0.5,0-1.1,0.1-1.6,0.1c-1.4-0.1-2.7,0-4.1,0.1c-1.1,0-2.2,0-3.2,0c-1.5,0-2.9,0-4.4,0
				c-1.5,0-3,0.1-4.5,0c-1.4-0.1-2.8,0-4.2,0.1c-0.1,0-0.2,0-0.3,0c-1.6-0.2-3.2,0-4.8-0.1c-0.6,0-1.3-0.1-1.9-0.1
				c-0.3,0-0.6,0-0.9,0.1c-0.5,0-1.1,0.1-1.6,0.1c-0.7,0-1.3,0-2,0c-0.2,0-0.4,0-0.6,0c-0.2,0-0.4-0.1-0.5,0c-0.8,0-1.7,0.1-2.5,0.1
				c-0.1,0-0.3,0-0.4,0c-0.3,0-0.5-0.1-0.8-0.1c-1.4,0-2.8,0.1-4.2,0.1c-1.1,0-2.2,0-3.2,0c-1.1,0-2.1,0.1-3.2,0.1
				c-0.8,0-1.5-0.1-2.3,0c-1.2,0-2.3,0.1-3.5,0.1c-0.7,0-1.4,0-2.1-0.1c-1.4-0.1-2.7-0.1-4.1-0.1c-1.4,0.1-2.9,0-4.3,0
				c-0.7,0-1.5,0-2.2,0.1c-0.7,0-1.4,0-2.1,0c-0.6,0-1.2,0-1.8,0c-0.5,0-1.1-0.1-1.6-0.1c-1.1,0-2.2,0.1-3.3,0
				c-1.3-0.1-2.7,0.1-4,0.1c-0.6,0-1.1-0.1-1.7-0.1c-0.9,0-1.8,0-2.7,0c-1.5,0-2.9,0-4.4,0c-1.2,0-2.4-0.1-3.6-0.2
				c-0.1,0-0.2,0-0.3,0c-1.4,0.2-2.7,0-4.1,0c-0.9,0-1.8-0.2-2.8,0.1c-0.1,0-0.2,0-0.3,0c-1.5-0.2-3-0.1-4.5-0.1
				c-1.1,0-2.1,0-3.2-0.1c-1.2,0-2.4,0-3.6,0c-0.9,0-1.8-0.1-2.6-0.1c-0.5,0-1.1,0-1.6,0c-0.4,0-0.9-0.1-1.3-0.1c-0.8,0-1.5,0-2.3,0
				c-0.9,0-1.8,0.2-2.7,0c-0.8-0.1-1.6-0.1-2.4-0.1c-0.2,0-0.4,0-0.6,0c-0.1,0-0.3,0.1-0.3,0c-0.6-0.2-1.2-0.2-1.7-0.2
				c-0.4,0-0.8,0.1-1.2,0.1c-0.4,0-0.9,0-1.3,0c-0.6,0-1.3,0-1.9,0c-1.2,0-2.3,0-3.5,0c-0.8,0-1.5-0.1-2.3-0.1
				c-0.7,0-1.4,0.1-2.1,0.1c-0.8,0-1.7,0.1-2.5,0c-1.8-0.2-3.6-0.1-5.5-0.1c-0.5,0-1.1-0.1-1.6-0.1c-0.6,0-1.2,0-1.8,0
				c-0.1,0-0.2,0-0.2,0c-1.4-0.1-2.8,0.1-4.2-0.1c-0.6-0.1-1.3,0.1-1.9,0.1c-0.2,0-0.4,0.1-0.6,0c-0.7-0.3-1.5-0.1-2.2-0.1
				c-0.9,0-1.8,0-2.8-0.1c-0.7,0-1.5-0.1-2.2-0.1c-0.9,0-1.8,0-2.6,0c-0.8,0-1.6,0-2.3,0c-1,0-2-0.1-3-0.1c-1.4,0-2.9,0-4.3,0
				c-0.2,0-0.5-0.1-0.7-0.1c71.7,0,143.5,0,215.2,0C222.5-69.7,222.5-69.5,222.5-69.3z"/>
			<path d="M7.1-69.9c-0.4,0.2-0.9,0.1-1.3,0C6.2-69.9,6.7-69.9,7.1-69.9z"/>
			<path class="st1" d="M104.6,18.2c0.1-0.2,0.2-0.4,0.2-0.6c0.1-0.5,0.2-1,0.3-1.5c0.1-0.3,0.1-0.6,0.2-0.9c0-0.1,0.1-0.3,0.1-0.4
				c0.2-1.7,0.4-3.5,0.7-5.2c0.2-1.2,0.5-2.5,0.8-3.7c0.1-0.3,0.1-0.7,0.1-1c0.1-0.5,0.1-0.5,0.5-0.5c0.7,0,1.4-0.1,2.1-0.1
				c1.1,0.1,2.2,0,3.3,0c1.1,0,1.2,0.1,1,1.2c-0.1,1-0.3,2-0.5,3c-0.2,1.2-0.4,2.3-0.6,3.5c-0.2,1-0.2,2.1-0.4,3.1
				c-0.3,1.3-0.4,2.7-0.7,4c-0.2,0.9-0.3,1.8-0.4,2.8c-0.2,1.4-0.4,2.8-0.6,4.2c-0.2,1-0.5,2-0.6,3c-0.1,1.3-0.2,2.7-0.2,4
				c0,0.7,0.7,1.8,1.4,1.8c0.3,0,0.5,0,0.8,0c0.6-0.1,1.1-0.1,1.7-0.2c0.5-0.1,0.9-0.4,1.3-0.6c0.1-0.1,0.3-0.2,0.4-0.2
				c0.3,0,0.4-0.2,0.6-0.4c0.2-0.3,0.5-0.5,0.8-0.7c1.1-1.1,1.7-2.5,2.2-3.9c0.4-1.1,0.6-2.3,0.7-3.5c0.1-0.9,0.4-1.8,0.5-2.7
				c0.2-1,0.3-1.9,0.4-2.9c0-0.1,0-0.1,0-0.2c0.2-1.3,0.5-2.7,0.7-4c0.3-1.4,0.5-2.8,0.9-4.1c0.1-0.6,0.4-1.2,0.6-1.8
				c0.3-1.1,1-1.9,1.6-2.8c0.1-0.1,0.3-0.2,0.4-0.3c0.2-0.1,0.3-0.2,0.4-0.4c0.2-0.2,0.3-0.4,0.7-0.4c0.1,0,0.2-0.1,0.3-0.1
				c0.5-0.4,1.1-0.7,1.7-0.8c0.3-0.1,0.5-0.2,0.8-0.3c0.4-0.1,0.8-0.2,1.1-0.2c0.7-0.1,1.5-0.1,2.2-0.1c0.2,0,0.4,0,0.5,0
				c1.1-0.1,2.1,0.1,3.2,0.4c0.4,0.1,0.5,0.3,0.5,0.7c-0.1,1-0.2,2-0.4,3c-0.1,0.7-0.3,1.3-0.5,2c-0.4,0.1-0.8,0-1.1,0
				c-0.3,0-0.6-0.1-0.9-0.1c-0.4,0-0.8,0-1.2,0c-0.2,0-0.4,0.1-0.6,0.1c-0.4,0.1-0.9,0.3-1.3,0.5c-0.2,0.1-0.4,0.3-0.6,0.6
				c-0.2,0.3-0.4,0.7-0.5,1.1c-0.1,0.2-0.1,0.3-0.2,0.5c-0.2,0.9-0.3,1.7-0.5,2.6c0,0.2,0,0.3,0,0.5c0,0.5,0.1,0.6,0.6,0.6
				c0.6,0,1.2,0,1.8,0c0.6-0.1,1.2,0.1,1.8,0.1c0,0.3,0,0.5,0,0.7c-0.3,1.4-0.5,2.8-0.8,4.2c-0.1,0.6-0.3,0.7-0.8,0.7
				c-0.5,0-0.9,0-1.3,0c-0.5,0-1.1,0-1.6,0c-0.3,0-0.5,0.1-0.6,0.4c-0.1,0.4-0.2,0.8-0.3,1.2c-0.2,1.3-0.5,2.6-0.7,3.9
				c-0.1,0.6-0.2,1.1-0.2,1.7c-0.1,0.9-0.3,1.9-0.4,2.8c-0.2,1.3-0.5,2.5-0.7,3.8c-0.2,0.9-0.2,1.9-0.4,2.8
				c-0.2,1.6-0.5,3.1-0.9,4.7c-0.2,0.7-0.4,1.5-0.6,2.2c-0.2,0.7-0.4,1.5-1.1,2c0,0-0.1,0.1-0.1,0.1c-0.2,0.6-0.6,1.1-1.1,1.5
				c-0.3,0.2-0.5,0.4-0.8,0.6c-1.3,0.8-2.6,1.3-4.1,1.4c-0.6,0-1.3,0.2-1.9,0.2c-0.1,0-0.3,0-0.4,0c-0.6,0-1.3-0.1-1.9,0
				c-0.7,0-1.3-0.1-1.9-0.3c-0.3-0.1-0.4-0.2-0.4-0.6c0-0.4,0.1-0.9,0.1-1.3c0.2-1.1,0.5-2.2,0.7-3.3c0.1-0.5,0.3-0.7,0.9-0.7
				c0.5,0,0.9,0.2,1.4,0.2c0.6,0,1.3,0,1.9-0.2c0.6-0.2,1-0.5,1.4-0.8c0.2-0.1,0.3-0.3,0.4-0.5c0.4-0.9,0.7-1.8,0.9-2.8
				c0.2-1,0.4-1.9,0.5-2.9c0-0.3,0.1-0.5,0.1-0.8c0-0.1-0.1-0.3-0.2-0.4c-0.1,0-0.4,0-0.5,0.1c-0.4,0.4-0.8,0.8-1.3,1.1
				c-0.4,0.3-0.8,0.5-1.2,0.7c-0.6,0.3-1.2,0.6-1.8,0.9c0,0,0,0-0.1,0c-0.8,0.2-1.6,0.4-2.4,0.6c-0.2,0-0.3,0-0.5,0.1
				c-0.7,0.3-1.5,0.3-2.2,0.1c-0.3-0.1-0.6-0.1-0.9-0.1c-0.6,0-1.1-0.3-1.7-0.6c-0.4-0.2-0.7-0.4-1.1-0.7c-0.5-0.3-0.9-0.6-1.1-1.1
				c-0.1-0.3-0.3-0.5-0.5-0.7c-0.3-0.4-0.7-0.4-1,0c-0.5,0.6-1.1,1.1-1.8,1.4c-0.3,0.1-0.7,0.3-1,0.6C98,40.2,97,40.5,96,40.8
				c-0.2,0.1-0.4,0.1-0.6,0.1c-0.6,0-1.3-0.1-1.9,0c-0.7,0.1-1.4-0.1-2.1-0.3c-0.4-0.1-0.9-0.2-1.3-0.4c-0.3-0.1-0.6-0.4-0.9-0.6
				c-0.1-0.1-0.2-0.2-0.2-0.2c-0.5,0-0.7-0.4-1-0.7c-0.5-0.5-1-0.9-1.4-1.4c-0.4-0.7-0.8-1.4-1.2-2.1c-0.2-0.4-0.4-0.8-0.3-1.3
				c0-0.1,0-0.1,0-0.2c-0.4-0.4-0.3-1-0.3-1.5c0-0.4-0.1-0.7-0.1-1.1c0-0.3,0-0.5,0-0.8c0.2-1.6,0.4-3.2,1-4.8
				c0.1-0.4,0.2-0.8,0.3-1.2c0.1-0.5,0-0.8-0.6-0.9c-0.4-0.1-0.9,0-1.3-0.2c-0.7-0.2-1.4-0.1-2-0.1c-0.6-0.1-0.8,0.2-0.7,0.8
				c0.3,1.4,0.1,2.7,0.1,4.1c0,0.4-0.1,0.7-0.2,1.1c-0.2,0.7-0.4,1.4-0.7,2.2c0,0.1-0.1,0.2-0.2,0.3c-0.5,0.5-0.6,1.1-0.9,1.7
				c-0.2,0.4-0.4,0.7-0.7,1c0,0.1-0.1,0.1-0.2,0.2c-0.3,0.8-1.1,1.3-1.6,1.9c-0.4,0.5-0.8,1.1-1.5,1.3c-0.1,0-0.2,0.2-0.3,0.3
				c-0.7,0.6-1.5,1.2-2.4,1.5c-0.2,0.1-0.4,0.3-0.7,0.4c-0.5,0.2-1.1,0.5-1.6,0.7c-0.1,0-0.2,0.1-0.3,0.1c-1-0.1-1.8,0.4-2.7,0.5
				c-0.4,0-0.8,0-1.2,0c-0.6,0-1.2-0.2-1.7-0.2c-0.9,0-1.7-0.2-2.6-0.5c-0.6-0.2-1.3-0.5-1.9-0.8c-0.8-0.5-1.5-1-2.2-1.7
				c-1-1-1.6-2.2-2.2-3.4c-0.3-0.7-0.4-1.5-0.5-2.2c-0.1-0.5-0.2-1.1-0.1-1.6c0-1,0.1-1.9,0.3-2.9c0-0.4,0.2-0.7,0.3-1.1
				c0.3-0.7,0.6-1.4,0.9-2.1c0.2-0.5,0-0.8-0.5-0.9c-0.5-0.1-1.1-0.1-1.6-0.2c-0.3,0-0.5-0.1-0.8-0.1c-0.3,0-0.6-0.1-0.9-0.1
				c-0.8-0.1-0.9,0.1-0.8,0.8c0.2,1.4,0.2,2.9-0.1,4.3c-0.1,0.4-0.2,0.8-0.2,1.3c0,0.2-0.2,0.4-0.2,0.7c-0.1,0.5-0.3,1-0.7,1.4
				c-0.1,0.1-0.1,0.2-0.1,0.3c-0.2,0.6-0.4,1.3-0.8,1.8c-0.4,0.5-0.7,1-1,1.4c-0.3,0.4-0.7,0.7-1,1.1c-0.1,0.2-0.4,0.4-0.5,0.5
				c-0.2,0.2-0.4,0.3-0.6,0.5c-0.2,0.1-0.3,0.3-0.5,0.4c0,0-0.1,0-0.2,0.1c-0.4,0.4-0.9,0.6-1.3,1c-0.5,0.4-0.9,0.6-1.5,0.9
				c-0.7,0.3-1.4,0.7-2.2,0.9c-0.9,0.3-1.7,0.5-2.6,0.6c-1.2,0.1-2.4,0-3.6,0c-1.4,0-2.7-0.3-3.9-0.8c-0.2-0.1-0.3-0.2-0.5-0.3
				c-0.4-0.2-0.6-0.5-1-0.6c-0.2-0.1-0.4-0.2-0.6-0.4c-0.6-0.6-1.2-1.1-1.7-1.8c-0.5-0.6-0.8-1.3-1.2-2c-0.2-0.3-0.3-0.7-0.4-1.1
				c-0.1-0.2-0.1-0.5-0.1-0.7c0-0.3,0-0.6-0.2-0.9c-0.1-0.1,0-0.3,0-0.5c0-1,0-2,0.2-3c0.1-0.8,0.3-1.7,0.6-2.4
				c0.5-1.2,1.1-2.3,1.6-3.4c0.1-0.1,0.2-0.2,0.3-0.3c0.3-0.4,0.6-0.8,0.9-1.2c0.2-0.2,0.4-0.4,0.7-0.7c0,0,0.1,0,0.1-0.1
				c0.3-0.7,1-0.8,1.4-1.4c0.2-0.2,0.4-0.3,0.6-0.4c0.1-0.1,0.2-0.2,0.3-0.2c0.1-0.1,0.3-0.2,0.4-0.3c0.1-0.1,0.2-0.1,0.3-0.1
				c0.4-0.3,0.8-0.6,1.2-0.9c0.2-0.1,0.4-0.2,0.6-0.3c0.7-0.3,1.3-0.5,2-0.8c0.1,0,0.3,0,0.4,0c0.2,0,0.4-0.1,0.5-0.2
				c0.2-0.2,0.4-0.2,0.7-0.2c1,0,1.9-0.1,2.9-0.1c0.6,0,1.1,0,1.7,0c0.9,0,1.7,0.1,2.6,0.3c0.1,0,0.2,0.1,0.4,0.2
				c0.1,0.1,0.3,0.1,0.4,0.1c1,0.1,2.1,0.2,3.1,0.3c0.8,0.1,1.6,0.4,2.3,0.5c0.9,0.1,1.7,0.3,2.5,0.7c0.5-0.1,1,0.1,1.4,0.2
				c1.2,0.3,2.5,0.6,3.7,0.8c0.5,0.1,1,0.2,1.4,0.2c0.4,0,0.7-0.3,1-0.5c0.5-0.3,0.9-0.8,1.5-0.9c0.1,0,0.2-0.1,0.2-0.2
				c0.1-0.1,0.2-0.2,0.3-0.2c0.6-0.1,1.1-0.5,1.7-0.7c0.4-0.1,0.9-0.4,1.4-0.4c0.4,0,0.9-0.3,1.3-0.4c0.7-0.1,1.5-0.2,2.2-0.2
				c0.7,0,1.4,0,2,0.1c1,0.2,2.1,0,3,0.3c0.4,0.1,0.9,0.1,1.3,0.2c1.1,0.2,2.2,0.3,3.3,0.6c1,0.3,2.2,0.3,3.2,0.9c0,0,0,0,0.1,0
				c0.6-0.2,1.1,0.2,1.7,0.3c0.2,0,0.3,0,0.5,0.1c0.5,0.2,1,0.4,1.6,0.4c0.2,0,0.5,0.2,0.7,0.2c0.4,0.1,0.8,0.1,1.2,0.2
				c0.6,0.1,1.1-0.1,1.6-0.5c0.5-0.4,1-0.7,1.5-1.1c0.1-0.1,0.3-0.1,0.4-0.1c0.1,0,0.2,0,0.2-0.1c0.3-0.6,1-0.5,1.5-0.8
				c0.1-0.1,0.2-0.1,0.3-0.1c0.7-0.1,1.5-0.2,2.2-0.4c0.7-0.2,1.5-0.2,2.2-0.2c0.8,0,1.7,0,2.6,0.3c0.9,0.2,1.6,0.7,2.3,1.2
				C103.8,17.5,104.1,17.8,104.6,18.2z M39.2,22.2c-0.1,0-0.3,0.1-0.5,0.2c-0.4,0.1-0.8,0.2-1.2,0.3c-0.4,0.1-0.9,0.4-1.3,0.5
				c-0.1,0-0.2,0.1-0.2,0.2c-0.5,0.6-1.3,0.8-1.7,1.5c-0.1,0.2-0.3,0.3-0.5,0.5c-0.1,0.1-0.1,0.1-0.2,0.2c-0.1,0.3-0.3,0.7-0.4,1
				c-0.2,0.6-0.5,1.3-0.6,1.9c-0.1,0.6-0.1,1.3-0.1,2c0,0.3,0.1,0.7,0.2,1c0,0.2,0.1,0.3,0.2,0.4c0.2,0.3,0.4,0.7,0.7,1
				c0.5,0.5,0.9,1,1.5,1.2c0.6,0.3,1.3,0.3,1.9,0.5c0.3,0.1,0.7,0.1,1,0.2c0.2,0,0.4,0,0.6,0c0.3-0.1,0.5-0.2,0.8-0.3
				c0.4-0.1,0.7-0.3,1.1-0.4c0.5-0.1,0.7-0.5,1.1-0.7c0.5-0.4,0.8-0.9,1.4-1.2c0,0,0,0,0,0c0.5-0.8,0.9-1.6,1.3-2.4
				c0.1-0.2,0.1-0.5,0.2-0.7c0.2-1,0.1-1.9,0-2.9c0-0.5-0.3-0.9-0.5-1.4c0-0.1-0.1-0.1-0.2-0.2c-0.2-0.2-0.4-0.5-0.6-0.7
				c-0.3-0.6-0.9-0.9-1.6-1c-0.2-0.1-0.4-0.2-0.6-0.2c-0.3-0.1-0.6-0.2-1-0.2C39.9,22.3,39.6,22.3,39.2,22.2z M67.2,34.7
				c0.7,0,1.3-0.2,1.9-0.3c0.9-0.3,1.6-0.8,2.3-1.3c0.7-0.4,1.1-1.2,1.6-1.8c0.2-0.2,0.3-0.5,0.5-0.7c0.1-0.2,0.3-0.4,0.3-0.6
				c0.3-1.2,0.7-2.3,0.3-3.5c0-0.1,0-0.2-0.1-0.4c0-1-0.6-1.7-1.1-2.4c-0.7-0.8-1.7-1-2.6-1.4c-0.1,0-0.2,0-0.3,0
				c-0.5,0-1,0.1-1.5,0c-0.7-0.1-1.3,0.2-1.8,0.5c-0.2,0.1-0.4,0.2-0.6,0.3c-0.6,0.2-1,0.5-1.4,0.9c-0.3,0.2-0.4,0.5-0.6,0.8
				c-0.1,0.2-0.2,0.4-0.4,0.5c-0.4,0.4-0.7,0.9-0.8,1.4c-0.2,0.9-0.4,1.7-0.7,2.6c0,0.1,0,0.2,0,0.4c0.2,0.7,0.2,1.6,0.6,2.3
				c0.2,0.3,0.5,0.6,0.6,0.9c0.2,0.5,0.6,0.7,1,1C65.2,34.4,66.3,34.6,67.2,34.7z M91.9,29.8c0.1,0.6,0.3,1.3,0.5,2.1
				c0,0.1,0.1,0.2,0.2,0.3c0.1,0.2,0.2,0.3,0.4,0.5c0.4,0.4,0.8,0.9,1.3,1.3c1,0.7,2.2,0.8,3.4,0.7c0.7-0.1,1.3-0.4,2-0.6
				c0.4-0.1,0.8-0.3,1.1-0.6c0.4-0.4,0.9-0.7,1.2-1.2c0.4-0.5,0.8-1,1.1-1.6c0.4-0.9,0.7-1.8,0.8-2.8c0.1-1.1-0.1-2.1-0.6-3
				c-0.5-1-1.3-1.6-2.1-2.2c-0.1,0-0.2,0-0.2,0c-0.2-0.1-0.3-0.1-0.5-0.2c-0.1,0-0.2-0.1-0.3-0.1c-0.8,0-1.7-0.1-2.5,0.2
				c-0.9,0.2-1.8,0.5-2.4,1.2c-0.1,0.1-0.1,0.1-0.2,0.1c-0.7,0.2-1,0.7-1.4,1.2c-0.4,0.6-0.7,1.1-1,1.7c-0.2,0.3-0.4,0.7-0.5,1.1
				C91.9,28.3,91.9,28.9,91.9,29.8z"/>
			<path class="st1" d="M161.7,16.1c1,0.1,1.9,0,2.8,0c0.9,0,1.7,0,2.6,0c0.3,0,0.6,0.1,1-0.1c0.2-0.1,0.4,0,0.4,0.3
				c0,0.6,0,1.3,0,1.9c-0.1,0.7-0.2,1.3-0.3,2c-0.2,1-0.4,1.9-0.6,2.9c-0.1,0.3-0.1,0.7-0.1,1c0,0.9-0.1,1.7-0.3,2.5
				c-0.2,1.2-0.3,2.4-0.6,3.5c-0.3,1.1-0.1,2.1,0,3.2c0.1,0.6,0.7,1.3,1.2,1.4c0.6,0.1,1.1,0.1,1.7,0.2c0.1,0,0.2,0,0.2,0
				c0.6-0.4,1.2-0.5,1.8-0.8c0.7-0.4,1.2-0.9,1.6-1.5c0.1-0.2,0.3-0.4,0.4-0.5c0.4-0.2,0.6-0.6,0.7-1c0.3-0.8,0.6-1.5,0.9-2.3
				c0.2-0.4,0.3-0.9,0.4-1.3c0.2-0.9,0.3-1.8,0.4-2.6c0.1-0.3,0.1-0.7,0.2-1c0.1-0.6,0.3-1.2,0.4-1.9c0.1-0.8,0.2-1.6,0.3-2.5
				c0.1-0.9,0.2-1.8,0.3-2.7c0.1-0.6,0.1-0.7,0.8-0.7c1.9,0,3.7,0,5.6,0c0.6,0,0.7,0.1,0.6,0.7c-0.1,0.7-0.2,1.4-0.3,2.1
				c0,0.3-0.1,0.6-0.1,0.9c0,0.1,0.1,0.2,0.2,0.3c0,0,0.2,0,0.2-0.1c0.2-0.1,0.3-0.2,0.5-0.3c0.1-0.1,0.2-0.1,0.2-0.2
				c0.3-0.8,1-1,1.5-1.4c0.1-0.1,0.3-0.1,0.4-0.3c0.4-0.5,0.9-0.8,1.4-1c0.1,0,0.2-0.2,0.3-0.2c0.3-0.1,0.6-0.3,0.9-0.4
				c0.7-0.2,1.4-0.4,2.1-0.5c0.5-0.1,1-0.1,1.5-0.1c0.1,0,0.3,0,0.4,0c1.1-0.1,2.1,0.1,3.1,0.6c0.5,0.3,0.9,0.6,1.3,0.9
				c0.8,0.8,1.2,1.7,1.6,2.7c0.3,0.7,0.4,1.4,0.5,2.1c0,0.8,0,1.7,0,2.6c0,0.8-0.2,1.7-0.4,2.5c0,0.3-0.1,0.6-0.1,0.9
				c-0.2,1.5-0.4,3.1-0.6,4.6c-0.1,0.6-0.2,1.2-0.4,1.9c-0.2,1.2-0.4,2.3-0.6,3.5c-0.1,0.5-0.1,1-0.1,1.4c-0.1,0.5-0.4,0.8-0.9,0.7
				c-0.3,0-0.6,0-0.8-0.1c-0.9-0.1-1.8,0.1-2.6,0c-0.8-0.1-1.6,0-2.4,0c-0.3,0-0.5-0.2-0.5-0.5c0.1-0.8,0.3-1.6,0.4-2.5
				c0-0.3,0.1-0.6,0.1-0.9c0.1-0.6,0.1-1.1,0.2-1.7c0.2-1.3,0.5-2.6,0.7-4c0.2-1.4,0.3-2.8,0.5-4.2c0-0.3,0.1-0.6,0.2-0.9
				c0.2-0.7,0-1.5-0.1-2.2c-0.1-0.7-1.1-1.5-1.8-1.5c-0.7,0-1.4,0-2.1,0.1c-0.3,0-0.7,0.2-1,0.4c-0.5,0.2-1,0.5-1.4,0.8
				c-0.1,0.1-0.2,0.2-0.3,0.3c-0.1,0.1-0.2,0.2-0.3,0.3c-0.8,0.6-1.1,1.6-1.9,2.3c-0.1,0.1-0.2,0.2-0.2,0.3c0,0.6-0.4,1-0.6,1.5
				c-0.3,0.9-0.8,1.7-0.8,2.7c0,0.1,0,0.2,0,0.2c-0.2,0.6-0.3,1.1-0.4,1.7c-0.2,1.3-0.5,2.6-0.6,3.9c-0.1,0.8-0.2,1.7-0.2,2.6
				c-0.1,1.3-0.4,1.6-1.6,1.5c-0.5,0-1-0.1-1.5-0.1c-0.3,0-0.6,0-0.8,0.1c-0.4,0.1-0.8,0.1-1.2,0c-0.5-0.1-1-0.2-1.5,0
				c-0.1,0-0.2,0-0.4,0c-0.4,0-0.5-0.2-0.5-0.6c0.1-0.5,0.2-1,0.3-1.5c0-0.1,0.1-0.2,0.1-0.4c0-0.2-0.1-0.4-0.2-0.5
				c-0.1-0.1-0.5,0-0.7,0.2c-0.5,0.6-1.1,1.1-1.8,1.4c-0.4,0.2-0.8,0.5-1.2,0.7c-0.6,0.3-1.1,0.7-1.7,0.8c-0.6,0.1-1.1,0.4-1.7,0.5
				c-0.1,0-0.2,0-0.2,0c-1.1,0-2.1,0.1-3.2,0c-0.8-0.1-1.5-0.4-2.2-1c-0.6-0.5-1.2-1-1.6-1.7c-0.3-0.6-0.7-1.2-0.6-2
				c0-0.1,0-0.2,0-0.4c-0.1-0.4-0.2-0.7-0.3-1.1c-0.1-0.3-0.2-0.4-0.5-0.3c-0.2,0.1-0.5,0.4-0.7,0.6c-0.5,0.6-1.1,1-1.7,1.4
				c-0.5,0.3-0.9,0.7-1.3,1c-0.1,0.1-0.2,0.2-0.3,0.2c-0.4,0.2-0.9,0.3-1.3,0.6c-0.4,0.4-0.9,0.5-1.4,0.7c-0.7,0.3-1.3,0.6-2,0.9
				c-0.2,0.1-0.4,0.1-0.6,0.2c-0.2,0-0.4,0-0.5,0.1c-0.3,0.2-0.7,0.2-1,0.2c-0.2,0-0.3,0-0.5,0.1c-0.6,0.2-1.1,0.3-1.7,0.3
				c-0.6,0-1.1,0.2-1.7,0.1c-0.9-0.1-1.8,0.1-2.6-0.3c-0.1,0-0.2-0.1-0.2,0c-0.3,0.2-0.6,0-0.9-0.1c-0.9-0.2-1.7-0.6-2.4-1
				c-0.5-0.3-1-0.5-1.4-0.9c-0.6-0.6-1.4-1-1.8-1.8c-0.1-0.3-0.4-0.6-0.6-0.9c-0.5-0.7-1-1.5-1.1-2.4c-0.2-1-0.6-2-0.5-3.1
				c0-0.3,0-0.6,0-1c0.1-1.4,0.4-2.7,0.9-4c0.2-0.6,0.6-1.2,0.9-1.7c0.1-0.2,0.2-0.5,0.3-0.8c0.2-0.4,0.5-0.7,0.7-1.1
				c0.4-0.5,0.9-1,1.3-1.5c0.2-0.2,0.4-0.4,0.7-0.7c0.2-0.2,0.4-0.4,0.6-0.6c0,0,0-0.1,0.1-0.1c0.7-0.3,1.1-1,1.8-1.3
				c0.5-0.2,1-0.4,1.5-0.7c0.3-0.2,0.6-0.4,1-0.5c0.5-0.1,0.9-0.2,1.4-0.3c0.3-0.1,0.6-0.2,1-0.3c0.8-0.2,1.6-0.3,2.4-0.2
				c0.8,0.1,1.7,0,2.5,0.3c0.9,0.3,1.8,0.7,2.7,1.2c0.8,0.5,1.5,1.2,2,2.1c0.2,0.4,0.4,0.9,0.5,1.4c0.2,1.1,0.3,2.2-0.1,3.4
				c-0.2,0.5-0.3,0.9-0.6,1.3c-0.2,0.3-0.4,0.7-0.6,1.1c-0.2,0.4-0.4,0.7-0.7,1c-0.5,0.5-1,1.1-1.6,1.6c-0.2,0.2-0.4,0.3-0.7,0.5
				c-0.4,0.2-0.8,0.6-1.2,0.9c-0.5,0.3-0.9,0.7-1.5,0.9c-0.5,0.2-0.9,0.5-1.4,0.7c-0.1,0.1-0.3,0.2-0.4,0.2
				c-0.6,0.1-1.1,0.5-1.8,0.4c-0.1,0-0.2,0.1-0.4,0.2c-0.4,0.3-0.8,0.4-1.3,0.4c-0.5-0.1-0.8,0.1-0.9,0.4c-0.1,0.3,0.1,0.6,0.6,0.8
				c0.9,0.3,1.8,0.5,2.8,0.6c0.7,0,1.4,0,2.2-0.1c0.4,0,0.7-0.2,1.1-0.2c0.9-0.2,1.8-0.4,2.6-0.6c0.5-0.2,1-0.5,1.5-0.7
				c0.5-0.2,0.9-0.4,1.4-0.7c0.2-0.1,0.4-0.2,0.6-0.4c0.1,0,0.1-0.1,0.2-0.1c0.8-0.2,1.2-0.8,1.7-1.3c0.6-0.5,1.2-1.1,1.8-1.6
				c0.1-0.1,0.2-0.1,0.2-0.2c0.2-0.8,0.9-1.3,1.2-2c0.3-0.8,0.7-1.6,1-2.5c0.2-0.7,0.4-1.4,0.5-2.1c0.1-1,0.3-1.9,0.5-2.9
				C161.3,18.2,161.5,17.2,161.7,16.1z M145.5,22c-0.5,0.1-1.1,0.2-1.6,0.3c-1,0.2-1.8,0.9-2.5,1.5c-0.5,0.4-1,1-1.3,1.6
				c-0.4,0.8-0.7,1.6-0.8,2.4c-0.1,0.5,0,0.6,0.5,0.7c0.2,0,0.3,0,0.5,0c0.5-0.1,0.9-0.1,1.4-0.2c0.3-0.1,0.5-0.1,0.8-0.3
				c0.5-0.3,1.1-0.2,1.6-0.7c0,0,0.1,0,0.1,0c0.2-0.1,0.4-0.2,0.5-0.3c0.1-0.1,0.2-0.2,0.3-0.2c0.6-0.3,1.1-0.7,1.5-1.3
				c0.2-0.3,0.3-0.6,0.5-0.8c0.6-0.7,0.4-1.4,0.2-2.1c0-0.1-0.1-0.2-0.2-0.2C146.4,22.2,146,21.9,145.5,22z"/>
			<path class="st1" d="M29.2,10c-0.6,0.3-1.2,0.1-1.8,0.1c-0.6,0-1.2-0.1-1.8-0.1c-0.1,0-0.3,0-0.4,0.1c-0.5,0.2-1.1,0.5-1.6,0.7
				c-0.2,0.1-0.3,0.2-0.4,0.4c0,0.1-0.1,0.2-0.1,0.3c-0.6,1-0.8,2-1,3.2c0,0.4-0.1,0.7-0.2,1.1c0,0.4,0,0.5,0.5,0.6
				c0.3,0,0.5,0,0.8,0c0.9,0,1.7,0,2.6,0.1c0.4,0,0.5,0.2,0.5,0.6c-0.2,0.9-0.4,1.7-0.6,2.6c0,0.2-0.1,0.5-0.2,0.7
				c-0.1,0.6-0.2,1.2-0.4,1.7c0,0.2-0.2,0.3-0.4,0.3c-1.1,0-2.2-0.1-3.3-0.1c-0.4,0-0.6,0.1-0.7,0.5c-0.2,0.9-0.4,1.7-0.6,2.6
				c-0.2,0.8-0.4,1.6-0.5,2.4c-0.1,0.8-0.2,1.6-0.3,2.4c-0.1,0.9-0.3,1.8-0.5,2.8c-0.2,0.9-0.4,1.8-0.6,2.7c-0.2,1-0.3,2-0.4,3
				c-0.1,0.9-0.3,1.7-0.5,2.6c-0.3,1.1-0.5,2.3-0.9,3.4c-0.3,1-0.6,1.9-1.3,2.6c-0.2,0.2-0.2,0.4-0.4,0.6c-0.6,0.8-1.3,1.4-2.2,1.9
				c-0.7,0.3-1.4,0.7-2,1c-0.2,0.1-0.5,0-0.7,0.1c-0.2,0-0.4,0-0.6,0.1c-0.3,0.2-0.5,0.2-0.8,0.2c-0.9,0-1.7,0.1-2.6,0.1
				c-1,0-2-0.1-3-0.1c-0.1,0-0.2,0-0.3-0.1c-0.6-0.1-0.7-0.2-0.6-0.8c0.1-0.5,0.2-1,0.3-1.6c0.1-0.3,0.1-0.5,0.1-0.8
				c0.1-0.4,0.2-0.7,0.3-1.1c0.1-0.3,0.1-0.7,0.2-1c0.1-0.3,0.1-0.6,0.2-0.9c0.6,0.1,1,0.2,1.5,0.2c0.6,0,1.2,0,1.9,0
				c0.2,0,0.5-0.1,0.7-0.2c0.8-0.2,1.4-0.8,1.9-1.3c0.1-0.1,0.1-0.3,0.2-0.4c0.3-0.8,0.6-1.6,0.7-2.5c0.2-1,0.5-1.9,0.6-2.9
				c0.2-1.3,0.4-2.7,0.6-4c0.1-0.7,0.3-1.3,0.5-2c0.3-1.3,0.6-2.7,0.7-4c0.1-1,0.3-2,0.5-2.9c0.2-1,0.4-2,0.6-3
				c0-0.3,0.1-0.5,0.2-0.8c0.3-1.4,0.5-2.8,0.7-4.2c0.2-1.1,0.3-2.3,0.6-3.4c0.3-1.1,0.4-2.3,1-3.3c0-0.1,0.1-0.2,0.1-0.3
				c0.2-0.9,0.6-1.7,1.3-2.4c0.3-0.3,0.5-0.6,0.7-0.9c0.3-0.3,0.6-0.5,0.9-0.8c0,0,0.1-0.1,0.1-0.1c0.6-0.2,1.1-0.6,1.6-0.9
				c0.1-0.1,0.2-0.1,0.3-0.1C22,4.4,22.9,4.2,23.8,4c0.4-0.1,0.7,0,1.1,0c0.5,0,1.1,0,1.6-0.1c1-0.1,2,0.2,3,0.3
				c0.4,0,0.6,0.4,0.6,0.8c-0.2,1.2-0.4,2.4-0.7,3.6C29.3,9.1,29.2,9.5,29.2,10z"/>
			<path class="st1" d="M166.2,3.8c0.4,0,0.8,0,1.3,0c0.9,0.1,1.6,0.6,2.1,1.4c0.3,0.4,0.6,0.8,0.7,1.3c0.1,0.4,0.2,0.8,0.2,1.2
				c-0.1,1.5-0.6,2.8-2,3.6c0,0,0,0-0.1,0c-0.2,0.2-0.4,0.4-0.6,0.5c-0.9,0.2-1.8,0.4-2.7,0.1c-1-0.4-1.9-1-2.4-2.1
				c-0.4-1-0.2-2-0.2-3c0.3-0.5,0.4-1.2,1-1.6c0.4-0.4,0.8-0.7,1.3-1C165.3,3.8,165.7,3.6,166.2,3.8z"/>
		</g>
	</g>
</g>
</svg>
